<?xml version="1.0" encoding="utf-8"?>
<!-- Generator: Adobe Illustrator 25.4.1, SVG Export Plug-In . SVG Version: 6.00 Build 0)  -->
<svg version="1.1" id="Layer_1" xmlns="http://www.w3.org/2000/svg" xmlns:xlink="http://www.w3.org/1999/xlink" x="0px" y="0px"
	 viewBox="0 0 300 56.8" style="enable-background:new 0 0 300 56.8;" xml:space="preserve">
<style type="text/css">
	.st0{fill:#F56200;}
</style>
<g>
	<path class="st0" d="M38.2,40.4l-5.1-8.9h10l7.7,13.4c3.4-4.6,5.4-10.3,5.4-16.5c0-15.5-12.6-28.1-28.1-28.1S0,12.9,0,28.4
		c0,6.2,2,11.9,5.4,16.5L28.1,5.6L41.6,29h-9.9L28,22.6l-5.1,8.9h7.4l5.1,8.9H17.7l-6.2,10.7c4.6,3.4,10.4,5.4,16.6,5.4
		c6.1,0,11.8-2,16.4-5.3L38.2,40.4z"/>
	<path class="st0" d="M81.5,15.5L95.7,45h-5.2L88,39.2H74.5L71.9,45h-5L81,15.5H81.5z M79.5,28l-3.2,7.1h9.9L83,28.1l-1.7-4h-0.1
		L79.5,28z M96.5,26.6h4.3v3.6c0.4-1.2,1.1-2.2,2.1-3c1-0.7,2.1-1.1,3.3-1.1c0.9,0,1.4,0.1,1.8,0.2l-0.6,4.4
		c-0.2-0.2-0.8-0.2-1.6-0.2c-1.3,0-2.4,0.4-3.4,1.2c-1,0.8-1.5,2.1-1.5,3.8V45h-4.3V26.6z M110.2,26.6h4.5V45h-4.5V26.6z
		 M112.4,23.1c-0.8,0-1.5-0.3-2.1-0.8c-0.6-0.6-0.8-1.3-0.8-2.1c0-0.7,0.3-1.4,0.8-1.9c0.6-0.5,1.3-0.8,2.1-0.8c0.8,0,1.5,0.3,2,0.8
		c0.6,0.5,0.8,1.2,0.8,1.9c0,0.8-0.3,1.5-0.8,2.1C113.9,22.9,113.2,23.1,112.4,23.1z M116.5,26.6h4.9l4,8.3l1.3,3.3l1.3-3.3l3.9-8.3
		h4.8L127.1,45h-0.8L116.5,26.6z M146.4,45.4c-1.7,0-3.2-0.4-4.6-1.2c-1.4-0.8-2.5-1.9-3.4-3.4c-0.8-1.5-1.2-3.2-1.2-5.1
		c0-1.9,0.4-3.6,1.1-5.1c0.7-1.4,1.8-2.6,3.2-3.4c1.4-0.8,3-1.2,4.8-1.2c1.1,0,2.1,0.2,3,0.6c0.9,0.4,1.7,0.8,2.4,1.4
		c0.6,0.5,1.1,1.1,1.3,1.6l0.1-3.1h4.1V45h-4.1l-0.1-3.2c-0.5,1-1.3,1.8-2.5,2.6C149.3,45,147.9,45.4,146.4,45.4z M147.2,41.8
		c1.5,0,2.8-0.5,3.8-1.6c1-1.1,1.6-2.5,1.6-4.2v-0.3c0-1.1-0.2-2.2-0.7-3.1c-0.5-0.9-1.1-1.6-2-2.1c-0.8-0.5-1.7-0.8-2.7-0.8
		c-1.7,0-3,0.6-4,1.7c-0.9,1.1-1.4,2.5-1.4,4.3c0,1.8,0.5,3.2,1.4,4.4C144.1,41.2,145.4,41.8,147.2,41.8z M164.7,45.4
		c-0.8,0-1.5-0.3-2-0.8c-0.6-0.6-0.8-1.2-0.8-2c0-0.8,0.3-1.5,0.8-2c0.6-0.6,1.3-0.8,2.1-0.8c0.8,0,1.5,0.3,2,0.8
		c0.6,0.5,0.8,1.2,0.8,2c0,0.8-0.3,1.5-0.8,2C166.2,45.1,165.6,45.4,164.7,45.4z M172.5,15.5h13.8v3.9h-9.4v8.3h7.3v3.9h-7.3V45
		h-4.4V15.5z M189.3,26.6h4.5V45h-4.5V26.6z M191.5,23.1c-0.8,0-1.5-0.3-2.1-0.8s-0.8-1.3-0.8-2.1c0-0.7,0.3-1.4,0.8-1.9
		s1.3-0.8,2.1-0.8c0.8,0,1.5,0.3,2,0.8s0.8,1.2,0.8,1.9c0,0.8-0.3,1.5-0.8,2.1C193,22.9,192.3,23.1,191.5,23.1z M198.6,26.6h4.2
		l0,3.4c0.5-1.1,1.3-2,2.4-2.8c1.1-0.7,2.4-1.1,3.8-1.1c1.9,0,3.4,0.4,4.4,1.2c1,0.8,1.7,1.9,2,3.3c0.3,1.4,0.5,3.3,0.5,5.5V45h-4.3
		v-8.7c0-2.3-0.2-4-0.7-5c-0.5-1-1.4-1.6-2.8-1.6c-0.8,0-1.6,0.3-2.4,0.8c-0.8,0.5-1.5,1.2-2.1,2.1c-0.5,0.9-0.8,2-0.8,3.3V45h-4.3
		V26.6z M228.6,45.4c-1.7,0-3.2-0.4-4.6-1.2c-1.4-0.8-2.5-1.9-3.4-3.4c-0.8-1.5-1.2-3.2-1.2-5.1c0-1.9,0.4-3.6,1.1-5.1
		c0.7-1.4,1.8-2.6,3.2-3.4c1.4-0.8,3-1.2,4.8-1.2c1.1,0,2.1,0.2,3,0.6c0.9,0.4,1.7,0.8,2.4,1.4c0.6,0.5,1.1,1.1,1.3,1.6l0.1-3.1h4.1
		V45h-4.1l-0.1-3.2c-0.5,1-1.3,1.8-2.5,2.6C231.4,45,230.1,45.4,228.6,45.4z M229.3,41.8c1.5,0,2.8-0.5,3.8-1.6
		c1-1.1,1.6-2.5,1.6-4.2v-0.3c0-1.1-0.2-2.2-0.7-3.1c-0.5-0.9-1.1-1.6-2-2.1c-0.8-0.5-1.7-0.8-2.7-0.8c-1.7,0-3,0.6-4,1.7
		c-0.9,1.1-1.4,2.5-1.4,4.3c0,1.8,0.5,3.2,1.4,4.4C226.2,41.2,227.5,41.8,229.3,41.8z M243.9,26.6h4.2l0,3.4c0.5-1.1,1.3-2,2.4-2.8
		c1.1-0.7,2.4-1.1,3.8-1.1c1.9,0,3.4,0.4,4.4,1.2c1,0.8,1.7,1.9,2,3.3c0.3,1.4,0.5,3.3,0.5,5.5V45H257v-8.7c0-2.3-0.2-4-0.7-5
		c-0.5-1-1.4-1.6-2.8-1.6c-0.8,0-1.6,0.3-2.4,0.8c-0.8,0.5-1.5,1.2-2.1,2.1c-0.5,0.9-0.8,2-0.8,3.3V45h-4.3V26.6z M274.3,45.4
		c-1.8,0-3.5-0.4-4.9-1.2c-1.4-0.8-2.6-1.9-3.4-3.4c-0.9-1.5-1.3-3.2-1.3-5.3c0-1.9,0.4-3.6,1.2-5c0.8-1.4,1.9-2.6,3.3-3.3
		c1.4-0.8,3.1-1.2,5-1.2c1.4,0,2.6,0.2,3.6,0.6c1,0.3,1.9,0.8,2.4,1.3l-1.9,3.5c-1.1-1.1-2.4-1.7-3.8-1.7c-1.7,0-3,0.5-3.9,1.6
		c-0.9,1-1.3,2.4-1.3,4.2c0,2,0.5,3.5,1.4,4.6c0.9,1.1,2.2,1.6,3.9,1.6c0.8,0,1.6-0.1,2.4-0.4c0.8-0.2,1.4-0.5,1.8-0.8l1.6,3
		c-0.6,0.5-1.4,0.9-2.5,1.2C276.8,45.2,275.6,45.4,274.3,45.4z M291.9,45.4c-2.2,0-4-0.4-5.5-1.3c-1.5-0.9-2.6-2-3.2-3.5
		c-0.7-1.5-1-3.1-1-4.8c0-2,0.4-3.7,1.2-5.1c0.8-1.5,2-2.6,3.4-3.4c1.4-0.8,3.1-1.2,4.9-1.2c2.8,0,4.9,0.8,6.3,2.4
		c1.4,1.5,2.1,3.7,2.1,6.6c0,0.7,0,1.5-0.1,2.2h-13.2c0.3,1.6,0.9,2.8,1.7,3.5c0.9,0.7,2.1,1.1,3.6,1.1c1.3,0,2.3-0.1,3.2-0.3
		c0.8-0.2,1.6-0.5,2.3-0.9l1.3,3.1c-0.7,0.4-1.6,0.8-2.7,1.1C294.9,45.2,293.5,45.4,291.9,45.4z M295.8,34.3c0-1.7-0.3-2.8-1.1-3.5
		c-0.7-0.7-1.8-1-3.2-1c-2.8,0-4.4,1.5-4.9,4.5H295.8z"/>
</g>
</svg>
